<?xml version="1.0" encoding="iso-8859-1"?><svg viewBox="0 0 285.69 114.5" xmlns="http://www.w3.org/2000/svg" xmlns:xlink="http://www.w3.org/1999/xlink"><style>:root>svg{display:none}:root>svg:target{display:block}</style><svg fill="currentColor" viewBox="0 0 32 16" id="arrow" xmlns="http://www.w3.org/2000/svg"><path d="M21.205 5.007a1.112 1.112 0 0 0-1.587 0 1.12 1.12 0 0 0 0 1.571l8.047 8.047H1.111A1.106 1.106 0 0 0 0 15.737c0 .619.492 1.127 1.111 1.127h26.554l-8.047 8.032c-.429.444-.429 1.159 0 1.587a1.112 1.112 0 0 0 1.587 0l9.952-9.952a1.093 1.093 0 0 0 0-1.571l-9.952-9.953z"/></svg><svg fill="currentColor" viewBox="0 0 285.69 114.5" id="logo" xmlns="http://www.w3.org/2000/svg"><path d="M225.56 29.5V18.81h-36.27V72.26h36.27V61.57h-24.81V50.88h21V40.19h-21V29.5h24.81zM272.61 18.81l-11.15 21.61-11.07-21.61-11.61.36 16.95 32.4v20.69h11.46V51.57l18.09-32.76h-12.67zM174.31 18.81h-13.36l-20.11 26.73 20.11 26.72h13.36l-20.08-26.72 20.08-26.73z"/><path d="M141.02 41.72V18.81h-11.46v53.45h11.46V41.72zM129.27 95.48V84.06h4.5c3.58 0 6.06 2.28 6.06 5.72s-2.48 5.7-6.06 5.7zm8.08-5.7a3.35 3.35 0 0 0-3.58-3.58h-2.07v7.14h2.07a3.42 3.42 0 0 0 3.58-3.56zM145 95.48V84.06h8.08v2.14h-5.65v2.42h5.53v2.14h-5.53v2.58h5.65v2.14zM161.59 95.48l-4.42-11.42h2.77l3.17 8.79 3.15-8.79H169l-4.4 11.42zM173.52 95.48V84.06h8.08v2.14H176v2.42h5.53v2.14H176v2.58h5.65v2.14zM186.92 95.48V84.06h2.43v9.28h4.83v2.14zM198.75 89.78a6 6 0 1 1 6 5.91 5.73 5.73 0 0 1-6-5.91zm9.43 0a3.48 3.48 0 1 0-3.47 3.75 3.47 3.47 0 0 0 3.47-3.75zM215.82 95.48V84.06h5.34a3.69 3.69 0 1 1 0 7.37h-2.91v4zm6.69-7.74a1.54 1.54 0 0 0-1.68-1.54h-2.58v3.09h2.58a1.54 1.54 0 0 0 1.68-1.55zM239.85 95.48v-8l-3.22 8h-1.06l-3.22-8v8h-2.43V84.06h3.41L236.1 91l2.77-6.9h3.43v11.38zM248 95.48V84.06h8.08v2.14h-5.65v2.42h5.53v2.14h-5.53v2.58h5.65v2.14zM269.26 95.48L263.82 88v7.44h-2.44V84.06h2.5l5.29 7.18v-7.18h2.44v11.42zM279.92 95.48V86.2h-3.34v-2.14h9.11v2.14h-3.32v9.28z"/></svg><svg stroke="currentColor" stroke-width="6" fill="none" viewBox="0 0 285.69 114.5" id="logo-icon" xmlns="http://www.w3.org/2000/svg"><path d="M22.88 71.08v-28.2l34.37-21.82 34.38 21.82v47.2H43.88V52.72l13.37-8.49 13.37 8.49v18.36H22.88z"/><path d="M3 3h108.5v108.5H3z"/></svg></svg>