<svg xmlns="http://www.w3.org/2000/svg" width="285.69" height="114.5" viewBox="0 0 285.69 114.5" fill="currentColor">
<!-- <defs><style>.bcls-1{fill:none !important;stroke:#fff;strokemiter-limit:10;stroke-width:6px;}</style></defs> -->
<title>logo</title>
<polygon points="225.56 29.5 225.56 18.81 189.29 18.81 189.29 29.5 189.29 71.21 189.29 72.26 225.56 72.26 225.56 61.57 200.75 61.57 200.75 50.88 221.75 50.88 221.75 40.19 200.75 40.19 200.75 29.5 225.56 29.5"/>
<polygon points="272.61 18.81 261.46 40.42 250.39 18.81 238.78 19.17 255.73 51.57 255.73 72.26 267.19 72.26 267.19 51.57 285.28 18.81 272.61 18.81"/>
<polygon points="174.31 18.81 160.95 18.81 140.84 45.54 160.95 72.26 174.31 72.26 154.23 45.54 174.31 18.81"/>
<polygon points="141.02 41.72 141.02 41.37 141.02 18.81 129.56 18.81 129.56 29.5 129.56 61.2 129.56 72.26 141.02 72.26 141.02 54.08 141.02 49.43 141.02 41.72"/>
<path d="M129.27,95.48V84.06h4.5c3.58,0,6.06,2.28,6.06,5.72s-2.48,5.7-6.06,5.7Zm8.08-5.7a3.35,3.35,0,0,0-3.58-3.58H131.7v7.14h2.07A3.42,3.42,0,0,0,137.35,89.78Z"/>
<path d="M145,95.48V84.06h8.08V86.2h-5.65v2.42h5.53v2.14h-5.53v2.58h5.65v2.14Z"/>
<path d="M161.59,95.48l-4.42-11.42h2.77l3.17,8.79,3.15-8.79H169l-4.4,11.42Z"/>
<path d="M173.52,95.48V84.06h8.08V86.2H176v2.42h5.53v2.14H176v2.58h5.65v2.14Z"/>
<path d="M186.92,95.48V84.06h2.43v9.28h4.83v2.14Z"/>
<path d="M198.75,89.78a6,6,0,1,1,6,5.91A5.73,5.73,0,0,1,198.75,89.78Zm9.43,0a3.48,3.48,0,1,0-3.47,3.75A3.47,3.47,0,0,0,208.18,89.78Z"/>
<path d="M215.82,95.48V84.06h5.34a3.69,3.69,0,1,1,0,7.37h-2.91v4Zm6.69-7.74a1.54,1.54,0,0,0-1.68-1.54h-2.58v3.09h2.58A1.54,1.54,0,0,0,222.51,87.74Z"/>
<path d="M239.85,95.48v-8l-3.22,8h-1.06l-3.22-8v8h-2.43V84.06h3.41L236.1,91l2.77-6.9h3.43V95.48Z"/>
<path d="M248,95.48V84.06h8.08V86.2h-5.65v2.42h5.53v2.14h-5.53v2.58h5.65v2.14Z"/>
<path d="M269.26,95.48,263.82,88v7.44h-2.44V84.06h2.5l5.29,7.18V84.06h2.44V95.48Z"/>
<path d="M279.92,95.48V86.2h-3.34V84.06h9.11V86.2h-3.32v9.28Z"/>
</svg>